<mxfile host="app.diagrams.net" modified="2022-04-16T14:48:20.631Z" agent="5.0 (Macintosh; Intel Mac OS X 10_15_7) AppleWebKit/537.36 (KHTML, like Gecko) Chrome/100.0.4896.75 Safari/537.36" etag="rqr_sAO46fIZ5rzFFZsT" version="17.4.5" type="github">
  <diagram id="ZwFVGfb23AnQF_Awncv4" name="Page-1">
    <mxGraphModel dx="946" dy="492" grid="0" gridSize="10" guides="1" tooltips="1" connect="1" arrows="1" fold="1" page="1" pageScale="1" pageWidth="827" pageHeight="1169" math="0" shadow="0">
      <root>
        <mxCell id="0" />
        <mxCell id="1" parent="0" />
        <mxCell id="4oxPXIpEj5uQzn535-at-17" value="" style="edgeStyle=orthogonalEdgeStyle;orthogonalLoop=1;jettySize=auto;html=1;rounded=0;shape=flexArrow;width=7;endSize=3;endWidth=12;" edge="1" parent="1" source="4oxPXIpEj5uQzn535-at-1" target="4oxPXIpEj5uQzn535-at-11">
          <mxGeometry relative="1" as="geometry" />
        </mxCell>
        <mxCell id="4oxPXIpEj5uQzn535-at-1" value="question" style="rounded=1;whiteSpace=wrap;html=1;fillColor=#d5e8d4;strokeColor=#82b366;" vertex="1" parent="1">
          <mxGeometry x="210" y="63" width="148" height="43" as="geometry" />
        </mxCell>
        <mxCell id="4oxPXIpEj5uQzn535-at-23" value="" style="edgeStyle=orthogonalEdgeStyle;shape=flexArrow;rounded=0;orthogonalLoop=1;jettySize=auto;html=1;width=7;endSize=3.83;endWidth=14;" edge="1" parent="1" source="4oxPXIpEj5uQzn535-at-11" target="4oxPXIpEj5uQzn535-at-22">
          <mxGeometry relative="1" as="geometry" />
        </mxCell>
        <mxCell id="4oxPXIpEj5uQzn535-at-11" value="Preprocess：segment、postag、ner" style="rounded=1;whiteSpace=wrap;html=1;fillColor=#fad9d5;strokeColor=#ae4132;" vertex="1" parent="1">
          <mxGeometry x="203" y="138" width="163" height="55" as="geometry" />
        </mxCell>
        <mxCell id="4oxPXIpEj5uQzn535-at-40" value="" style="edgeStyle=orthogonalEdgeStyle;shape=flexArrow;rounded=0;orthogonalLoop=1;jettySize=auto;html=1;fontFamily=Helvetica;fontSize=12;" edge="1" parent="1" source="4oxPXIpEj5uQzn535-at-22" target="4oxPXIpEj5uQzn535-at-38">
          <mxGeometry relative="1" as="geometry" />
        </mxCell>
        <mxCell id="4oxPXIpEj5uQzn535-at-43" value="" style="edgeStyle=orthogonalEdgeStyle;shape=flexArrow;rounded=0;orthogonalLoop=1;jettySize=auto;html=1;fontFamily=Helvetica;fontSize=12;" edge="1" parent="1" source="4oxPXIpEj5uQzn535-at-22" target="4oxPXIpEj5uQzn535-at-42">
          <mxGeometry relative="1" as="geometry" />
        </mxCell>
        <mxCell id="4oxPXIpEj5uQzn535-at-22" value="" style="whiteSpace=wrap;html=1;rounded=0;dashed=1;fillColor=#dae8fc;strokeColor=#6c8ebf;" vertex="1" parent="1">
          <mxGeometry x="119" y="232.5" width="330" height="141.5" as="geometry" />
        </mxCell>
        <mxCell id="4oxPXIpEj5uQzn535-at-24" value="FAQ：&lt;span style=&quot;color: rgb(51 , 51 , 51) ; font-family: &amp;#34;arial&amp;#34; , sans-serif ; font-size: 13px&quot;&gt;Frequently Asked Questions&lt;/span&gt;" style="text;html=1;resizable=0;autosize=1;align=center;verticalAlign=middle;points=[];fillColor=#fff2cc;strokeColor=none;rounded=1;shadow=0;dashed=1;sketch=0;glass=0;" vertex="1" parent="1">
          <mxGeometry x="180" y="236" width="209" height="19" as="geometry" />
        </mxCell>
        <mxCell id="4oxPXIpEj5uQzn535-at-26" value="Elasticsearch" style="rounded=1;whiteSpace=wrap;html=1;shadow=0;glass=0;labelBackgroundColor=none;sketch=0;verticalAlign=middle;align=center;" vertex="1" parent="1">
          <mxGeometry x="139" y="265" width="103" height="35" as="geometry" />
        </mxCell>
        <mxCell id="4oxPXIpEj5uQzn535-at-28" value="Faiss: semantic vector&amp;nbsp;retrieval" style="rounded=1;whiteSpace=wrap;html=1;shadow=0;glass=0;labelBackgroundColor=none;sketch=0;verticalAlign=middle;align=center;" vertex="1" parent="1">
          <mxGeometry x="139" y="322" width="102" height="35" as="geometry" />
        </mxCell>
        <mxCell id="4oxPXIpEj5uQzn535-at-29" value="➕" style="text;html=1;resizable=0;autosize=1;align=center;verticalAlign=middle;points=[];fillColor=none;strokeColor=none;rounded=0;shadow=0;glass=0;labelBackgroundColor=none;sketch=0;fontFamily=Helvetica;fontSize=12;" vertex="1" parent="1">
          <mxGeometry x="177" y="303" width="22" height="18" as="geometry" />
        </mxCell>
        <mxCell id="4oxPXIpEj5uQzn535-at-30" value="Rerank" style="rounded=1;whiteSpace=wrap;html=1;" vertex="1" parent="1">
          <mxGeometry x="347" y="293" width="89" height="42" as="geometry" />
        </mxCell>
        <mxCell id="4oxPXIpEj5uQzn535-at-31" value="" style="shape=flexArrow;endArrow=classic;html=1;rounded=0;fontFamily=Helvetica;fontSize=12;width=8;endSize=6.97;endWidth=18;" edge="1" parent="1">
          <mxGeometry width="50" height="50" relative="1" as="geometry">
            <mxPoint x="249" y="314" as="sourcePoint" />
            <mxPoint x="339" y="314" as="targetPoint" />
          </mxGeometry>
        </mxCell>
        <mxCell id="4oxPXIpEj5uQzn535-at-32" value="similar questions" style="text;html=1;resizable=0;autosize=1;align=center;verticalAlign=middle;points=[];fillColor=none;strokeColor=none;rounded=0;shadow=0;glass=0;labelBackgroundColor=none;sketch=0;fontFamily=Helvetica;fontSize=12;" vertex="1" parent="1">
          <mxGeometry x="247" y="280" width="100" height="18" as="geometry" />
        </mxCell>
        <mxCell id="4oxPXIpEj5uQzn535-at-38" value="answer" style="rounded=1;whiteSpace=wrap;html=1;fillColor=#d5e8d4;strokeColor=#82b366;" vertex="1" parent="1">
          <mxGeometry x="210" y="448" width="148" height="43" as="geometry" />
        </mxCell>
        <mxCell id="4oxPXIpEj5uQzn535-at-41" value="if find answer" style="text;html=1;resizable=0;autosize=1;align=center;verticalAlign=middle;points=[];fillColor=none;strokeColor=none;rounded=0;shadow=0;glass=0;labelBackgroundColor=none;sketch=0;fontFamily=Helvetica;fontSize=12;" vertex="1" parent="1">
          <mxGeometry x="297" y="401" width="81" height="18" as="geometry" />
        </mxCell>
        <mxCell id="4oxPXIpEj5uQzn535-at-44" style="edgeStyle=orthogonalEdgeStyle;shape=flexArrow;rounded=0;orthogonalLoop=1;jettySize=auto;html=1;exitX=0.5;exitY=1;exitDx=0;exitDy=0;entryX=1;entryY=0.5;entryDx=0;entryDy=0;fontFamily=Helvetica;fontSize=12;" edge="1" parent="1" source="4oxPXIpEj5uQzn535-at-42" target="4oxPXIpEj5uQzn535-at-38">
          <mxGeometry relative="1" as="geometry" />
        </mxCell>
        <mxCell id="4oxPXIpEj5uQzn535-at-42" value="KBQA：&lt;span style=&quot;color: rgb(51 , 51 , 51) ; font-family: &amp;#34;arial&amp;#34; , sans-serif ; font-size: 13px&quot;&gt;Knowledge Base Question Answer&lt;/span&gt;" style="rounded=1;whiteSpace=wrap;html=1;shadow=0;glass=0;labelBackgroundColor=none;sketch=0;fontFamily=Helvetica;fontSize=12;fillColor=#fff2cc;strokeColor=#d6b656;" vertex="1" parent="1">
          <mxGeometry x="507" y="273" width="147" height="60" as="geometry" />
        </mxCell>
        <mxCell id="4oxPXIpEj5uQzn535-at-45" value="else" style="text;html=1;resizable=0;autosize=1;align=center;verticalAlign=middle;points=[];fillColor=none;strokeColor=none;rounded=0;shadow=0;glass=0;labelBackgroundColor=none;sketch=0;fontFamily=Helvetica;fontSize=12;" vertex="1" parent="1">
          <mxGeometry x="453" y="273" width="32" height="18" as="geometry" />
        </mxCell>
      </root>
    </mxGraphModel>
  </diagram>
</mxfile>
